<svg xmlns="http://www.w3.org/2000/svg" width="30" viewBox="0 0 30 30" height="30" version="1.0"><defs><clipPath id="a"><path d="M 1.460938 8 L 26 8 L 26 29.03125 L 1.460938 29.03125 Z M 1.460938 8"/></clipPath><clipPath id="b"><path d="M 4 8 L 28.316406 8 L 28.316406 29.03125 L 4 29.03125 Z M 4 8"/></clipPath></defs><path fill="#100F0F" d="M 18.285156 13.09375 C 17.910156 13.09375 17.605469 12.789062 17.605469 12.410156 L 17.605469 5.964844 C 17.605469 3.425781 15.558594 1.363281 13.042969 1.363281 C 10.527344 1.363281 8.480469 3.425781 8.480469 5.964844 L 8.480469 12.410156 C 8.480469 12.789062 8.175781 13.09375 7.800781 13.09375 C 7.425781 13.09375 7.125 12.789062 7.125 12.410156 L 7.125 5.964844 C 7.125 2.675781 9.777344 -0.00390625 13.042969 -0.00390625 C 16.308594 -0.00390625 18.964844 2.675781 18.964844 5.964844 L 18.964844 12.410156 C 18.964844 12.789062 18.660156 13.09375 18.285156 13.09375"/><g clip-path="url(#a)"><path fill="#F58013" d="M 25.589844 27.375 C 25.589844 28.289062 24.847656 29.035156 23.945312 29.035156 L 3.148438 29.035156 C 2.242188 29.035156 1.503906 28.289062 1.503906 27.375 L 1.523438 9.769531 C 1.523438 8.859375 2.261719 8.109375 3.167969 8.109375 L 23.550781 8.109375 C 24.457031 8.109375 25.199219 8.859375 25.199219 9.769531 L 25.589844 27.375"/></g><g clip-path="url(#b)"><path fill="#3B82F6" d="M 28.285156 27.375 C 28.285156 28.289062 27.546875 29.035156 26.640625 29.035156 L 5.847656 29.035156 C 4.941406 29.035156 4.199219 28.289062 4.199219 27.375 L 4.21875 9.769531 C 4.21875 8.859375 4.957031 8.109375 5.863281 8.109375 L 26.246094 8.109375 C 27.152344 8.109375 27.894531 8.859375 27.894531 9.769531 L 28.285156 27.375"/></g><path fill="#F58013" d="M 12.292969 12.410156 C 12.292969 13.285156 11.589844 13.996094 10.71875 13.996094 C 9.847656 13.996094 9.144531 13.285156 9.144531 12.410156 C 9.144531 11.53125 9.847656 10.824219 10.71875 10.824219 C 11.589844 10.824219 12.292969 11.53125 12.292969 12.410156"/><path fill="#F58013" d="M 22.96875 12.410156 C 22.96875 13.285156 22.261719 13.996094 21.394531 13.996094 C 20.523438 13.996094 19.820312 13.285156 19.820312 12.410156 C 19.820312 11.53125 20.523438 10.824219 21.394531 10.824219 C 22.261719 10.824219 22.96875 11.53125 22.96875 12.410156"/><path fill="#141515" d="M 21.296875 13.09375 C 20.921875 13.09375 20.621094 12.789062 20.621094 12.410156 L 20.621094 5.964844 C 20.621094 3.425781 18.570312 1.363281 16.054688 1.363281 C 13.539062 1.363281 11.492188 3.425781 11.492188 5.964844 L 11.492188 12.410156 C 11.492188 12.789062 11.1875 13.09375 10.8125 13.09375 C 10.4375 13.09375 10.136719 12.789062 10.136719 12.410156 L 10.136719 5.964844 C 10.136719 2.675781 12.789062 -0.00390625 16.054688 -0.00390625 C 19.320312 -0.00390625 21.976562 2.675781 21.976562 5.964844 L 21.976562 12.410156 C 21.976562 12.789062 21.671875 13.09375 21.296875 13.09375"/><path fill="#FFF" d="M 22.644531 17.777344 L 22.386719 17.765625 C 21.953125 17.746094 21.589844 18.046875 21.570312 18.4375 L 21.46875 20.65625 L 21.464844 20.652344 L 21.179688 20.140625 L 18.585938 15.511719 C 18.40625 15.1875 18 15.074219 17.679688 15.257812 L 17.484375 15.367188 C 17.164062 15.550781 17.050781 15.960938 17.230469 16.28125 L 18.472656 18.5 C 18.316406 18.464844 18.152344 18.484375 18.003906 18.570312 L 17.808594 18.679688 C 17.488281 18.863281 17.375 19.269531 17.554688 19.59375 C 17.375 19.269531 16.96875 19.15625 16.648438 19.339844 L 16.453125 19.449219 C 16.132812 19.632812 16.019531 20.042969 16.199219 20.367188 C 16.019531 20.042969 15.613281 19.929688 15.289062 20.113281 L 15.097656 20.222656 C 14.777344 20.402344 14.664062 20.8125 14.84375 21.136719 L 15.949219 23.113281 C 15.949219 23.113281 17.410156 25.808594 18.023438 26.550781 C 18.59375 27.246094 18.714844 27.070312 18.964844 27.320312 C 19.335938 27.691406 19.6875 28 20.007812 27.820312 L 23.058594 26.082031 C 23.382812 25.902344 23.367188 25.414062 23.175781 24.925781 C 23.109375 24.75 23.015625 24.253906 23.0625 24.171875 C 23.0625 24.171875 23.152344 23.84375 23.148438 23.785156 L 23.394531 18.527344 C 23.414062 18.132812 23.078125 17.796875 22.644531 17.777344"/></svg>